<svg viewBox="0 0 200 200" xmlns="http://www.w3.org/2000/svg">
  <defs>
    <linearGradient id="logoGradient" x1="0%" y1="0%" x2="100%" y2="100%">
      <stop offset="0%" style="stop-color:#0055ff;stop-opacity:1" />
      <stop offset="100%" style="stop-color:#00d4ff;stop-opacity:1" />
    </linearGradient>
    <linearGradient id="accentGradient" x1="0%" y1="0%" x2="100%" y2="100%">
      <stop offset="0%" style="stop-color:#00d084;stop-opacity:1" />
      <stop offset="100%" style="stop-color:#0055ff;stop-opacity:1" />
    </linearGradient>
  </defs>
  
  <!-- Background circle -->
  <circle cx="100" cy="100" r="95" fill="none" stroke="url(#logoGradient)" stroke-width="2" opacity="0.3"/>
  
  <!-- Main shield/hexagon shape -->
  <path d="M 100 30 L 150 60 L 150 130 L 100 160 L 50 130 L 50 60 Z" fill="url(#logoGradient)" opacity="0.1" stroke="url(#logoGradient)" stroke-width="1.5"/>
  
  <!-- Uptrend candlestick pattern -->
  <g>
    <!-- First candle (green up) -->
    <rect x="70" y="95" width="8" height="35" fill="#00d084" opacity="0.9"/>
    <line x1="74" y1="85" x2="74" y2="135" stroke="#00d084" stroke-width="2"/>
    
    <!-- Second candle (larger green up) -->
    <rect x="85" y="75" width="8" height="55" fill="#00d084" opacity="0.95"/>
    <line x1="89" y1="65" x2="89" y2="135" stroke="#00d084" stroke-width="2"/>
    
    <!-- Third candle (largest green up) -->
    <rect x="100" y="55" width="8" height="75" fill="#0055ff" opacity="1"/>
    <line x1="104" y1="45" x2="104" y2="135" stroke="#0055ff" stroke-width="2"/>
    
    <!-- Fourth candle (green up) -->
    <rect x="115" y="80" width="8" height="50" fill="#00d4ff" opacity="0.9"/>
    <line x1="119" y1="70" x2="119" y2="135" stroke="#00d4ff" stroke-width="2"/>
  </g>
  
  <!-- Target/accuracy indicator -->
  <circle cx="160" cy="55" r="8" fill="none" stroke="#00d084" stroke-width="1.5" opacity="0.8"/>
  <circle cx="160" cy="55" r="5" fill="none" stroke="#00d084" stroke-width="1" opacity="0.6"/>
  <circle cx="160" cy="55" r="2" fill="#00d084" opacity="0.9"/>
  
  <!-- Currency symbol overlay (subtle) -->
  <text x="100" y="145" font-size="28" font-weight="bold" text-anchor="middle" fill="url(#accentGradient)" opacity="0.2" font-family="Arial, sans-serif">₹</text>
</svg>
